<?xml version="1.0" encoding="UTF-8" standalone="no"?>
<!-- Created with Inkscape (http://www.inkscape.org/) -->

<svg
   width="250"
   height="250"
   viewBox="0 0 66.145839 66.145835"
   version="1.1"
   id="svg87582"
   inkscape:version="1.2 (1:1.2.1+202207142221+cd75a1ee6d)"
   sodipodi:docname="gear.svg"
   xmlns:inkscape="http://www.inkscape.org/namespaces/inkscape"
   xmlns:sodipodi="http://sodipodi.sourceforge.net/DTD/sodipodi-0.dtd"
   xmlns="http://www.w3.org/2000/svg"
   xmlns:svg="http://www.w3.org/2000/svg">
  <sodipodi:namedview
     id="namedview87584"
     pagecolor="#ffffff"
     bordercolor="#666666"
     borderopacity="1.0"
     inkscape:pageshadow="2"
     inkscape:pageopacity="0.0"
     inkscape:pagecheckerboard="0"
     inkscape:document-units="mm"
     showgrid="false"
     width="1920px"
     units="px"
     inkscape:zoom="1.4127404"
     inkscape:cx="165.98944"
     inkscape:cy="205.98264"
     inkscape:window-width="1920"
     inkscape:window-height="949"
     inkscape:window-x="1920"
     inkscape:window-y="27"
     inkscape:window-maximized="1"
     inkscape:current-layer="layer1"
     inkscape:showpageshadow="2"
     inkscape:deskcolor="#d1d1d1" />
  <defs
     id="defs87579" />
  <g
     inkscape:label="Capa 1"
     inkscape:groupmode="layer"
     id="layer1">
    <g
       id="g82874"
       transform="matrix(0.26458333,0,0,0.26458333,-114.30309,-3.336125)"
       style="fill:#fffff9;fill-opacity:1">
      <path
         id="path16922"
         style="fill:#fffff9;fill-opacity:1;stroke:none;stroke-width:0.679898;stroke-linecap:round;stroke-linejoin:round"
         d="m 556.09766,44.707031 a 91.363937,91.363937 0 0 0 -91.36328,91.363279 91.363937,91.363937 0 0 0 91.36328,91.36328 91.363937,91.363937 0 0 0 91.36523,-91.36328 91.363937,91.363937 0 0 0 -91.36523,-91.363279 z m -0.38672,34.652344 a 54.107037,54.107037 0 0 1 54.10547,54.107425 54.107037,54.107037 0 0 1 -54.10547,54.10742 54.107037,54.107037 0 0 1 -54.10742,-54.10742 54.107037,54.107037 0 0 1 54.10742,-54.107425 z" />
      <rect
         style="fill:#fffff9;fill-opacity:1;stroke-width:0.713022;stroke-linecap:round;stroke-linejoin:round"
         id="rect1202-3-6"
         width="57.211098"
         height="32.203747"
         x="-582.15778"
         y="-253.01434"
         transform="scale(-1)" />
      <rect
         style="fill:#fffff9;fill-opacity:1;stroke-width:0.713022;stroke-linecap:round;stroke-linejoin:round"
         id="rect1202-3-6-56"
         width="57.211098"
         height="32.203747"
         x="-582.31848"
         y="-54.40736"
         transform="scale(-1)" />
      <rect
         style="fill:#fffff9;fill-opacity:1;stroke-width:0.713022;stroke-linecap:round;stroke-linejoin:round"
         id="rect1202-3-6-5"
         width="57.211098"
         height="32.203747"
         x="-161.41916"
         y="640.17285"
         transform="rotate(-90)" />
      <rect
         style="fill:#fffff9;fill-opacity:1;stroke-width:0.713022;stroke-linecap:round;stroke-linejoin:round"
         id="rect1202-3-6-5-3"
         width="57.211098"
         height="32.203747"
         x="-161.41916"
         y="441.64679"
         transform="rotate(-90)" />
      <rect
         style="fill:#fffff9;fill-opacity:1;stroke-width:0.713022;stroke-linecap:round;stroke-linejoin:round"
         id="rect1202-3-6-5-3-2"
         width="57.211098"
         height="32.203747"
         x="274.77274"
         y="367.4566"
         transform="rotate(-44.061888)" />
      <rect
         style="fill:#fffff9;fill-opacity:1;stroke-width:0.713022;stroke-linecap:round;stroke-linejoin:round"
         id="rect1202-3-6-5-3-2-9"
         width="57.211098"
         height="32.203747"
         x="-508.51578"
         y="-230.53636"
         transform="matrix(-0.68143878,-0.73187512,-0.73187512,0.68143878,0,0)" />
      <rect
         style="fill:#fffff9;fill-opacity:1;stroke-width:0.713022;stroke-linecap:round;stroke-linejoin:round"
         id="rect1202-3-6-5-3-2-9-7"
         width="57.211098"
         height="32.203747"
         x="250.16325"
         y="584.0957"
         transform="rotate(-47.043823)" />
      <rect
         style="fill:#fffff9;fill-opacity:1;stroke-width:0.713022;stroke-linecap:round;stroke-linejoin:round"
         id="rect1202-3-6-5-3-2-9-1-2"
         width="57.211098"
         height="32.203747"
         x="467.07495"
         y="367.63077"
         transform="matrix(0.72387695,0.6899291,0.6899291,-0.72387695,0,0)" />
    </g>
  </g>
</svg>
